<?xml version="1.0" encoding="utf-8"?>
<!-- Generated by IcoMoon.io -->
<svg version="1.1" xmlns="http://www.w3.org/2000/svg" xmlns:xlink="http://www.w3.org/1999/xlink" width="1008" height="48" viewBox="0 0 1008 48">
<svg id="icon-spinner" width="48" height="48" viewBox="0 0 48 48" x="0" y="0">
<path d="M18 6c0-3.314 2.686-6 6-6s6 2.686 6 6c0 3.314-2.686 6-6 6s-6-2.686-6-6zM30.728 11.272c0-3.314 2.686-6 6-6s6 2.686 6 6c0 3.314-2.686 6-6 6s-6-2.686-6-6zM39 24c0-1.657 1.343-3 3-3s3 1.343 3 3c0 1.657-1.343 3-3 3s-3-1.343-3-3zM33.728 36.728c0-1.657 1.343-3 3-3s3 1.343 3 3c0 1.657-1.343 3-3 3s-3-1.343-3-3zM21 42c0 0 0 0 0 0 0-1.657 1.343-3 3-3s3 1.343 3 3c0 0 0 0 0 0 0 1.657-1.343 3-3 3s-3-1.343-3-3zM8.272 36.728c0 0 0 0 0 0 0-1.657 1.343-3 3-3s3 1.343 3 3c0 0 0 0 0 0 0 1.657-1.343 3-3 3s-3-1.343-3-3zM6.772 11.272c0 0 0 0 0 0 0-2.485 2.015-4.5 4.5-4.5s4.5 2.015 4.5 4.5c0 0 0 0 0 0 0 2.485-2.015 4.5-4.5 4.5s-4.5-2.015-4.5-4.5zM2.625 24c0-1.864 1.511-3.375 3.375-3.375s3.375 1.511 3.375 3.375c0 1.864-1.511 3.375-3.375 3.375s-3.375-1.511-3.375-3.375z"></path>
</svg>
<svg id="icon-spinner2" width="48" height="48" viewBox="0 0 48 48" x="64" y="0">
<path d="M48 24c-0.060-3.134-0.74-6.259-1.996-9.115-1.252-2.859-3.069-5.45-5.299-7.59-2.229-2.142-4.872-3.835-7.734-4.952-2.86-1.121-5.934-1.657-8.972-1.592-3.038 0.060-6.062 0.721-8.828 1.939-2.768 1.214-5.275 2.975-7.347 5.136-2.073 2.16-3.711 4.721-4.79 7.491-1.083 2.769-1.6 5.743-1.535 8.685 0.060 2.942 0.701 5.866 1.881 8.541 1.176 2.677 2.882 5.101 4.974 7.104 2.091 2.004 4.569 3.586 7.248 4.627 2.677 1.045 5.552 1.542 8.397 1.478 2.846-0.060 5.67-0.682 8.254-1.824 2.585-1.138 4.927-2.788 6.861-4.811 1.935-2.022 3.461-4.417 4.465-7.005 0.611-1.568 1.026-3.206 1.244-4.866 0.058 0.003 0.117 0.006 0.176 0.006 1.657 0 3-1.343 3-3 0-0.084-0.004-0.167-0.011-0.25h0.011zM43.233 31.966c-1.1 2.494-2.695 4.753-4.649 6.618-1.953 1.866-4.266 3.337-6.761 4.303-2.495 0.969-5.17 1.427-7.823 1.363-2.653-0.061-5.278-0.644-7.679-1.71-2.402-1.062-4.579-2.601-6.375-4.486-1.797-1.884-3.212-4.114-4.14-6.518-0.931-2.404-1.37-4.979-1.306-7.535 0.061-2.557 0.625-5.082 1.653-7.392 1.025-2.311 2.508-4.405 4.324-6.132 1.815-1.728 3.962-3.088 6.275-3.978 2.313-0.893 4.788-1.313 7.248-1.249 2.461 0.061 4.886 0.606 7.104 1.595 2.22 0.987 4.231 2.414 5.889 4.162 1.659 1.746 2.963 3.811 3.815 6.032 0.855 2.222 1.255 4.596 1.192 6.961h0.011c-0.007 0.083-0.011 0.166-0.011 0.25 0 1.547 1.171 2.821 2.676 2.982-0.292 1.632-0.775 3.226-1.443 4.734z"></path>
</svg>
<svg id="icon-spinner3" width="48" height="48" viewBox="0 0 48 48" x="128" y="0">
<path d="M24 14.208c-1.545 0-2.798-1.253-2.798-2.798v-8.393c0-1.545 1.253-2.798 2.798-2.798s2.798 1.253 2.798 2.798v8.393c0 1.545-1.253 2.798-2.798 2.798z"></path>
<path d="M24 46.732c-0.966 0-1.749-0.783-1.749-1.749v-8.393c0-0.966 0.783-1.749 1.749-1.749s1.749 0.783 1.749 1.749v8.393c0 0.966-0.783 1.749-1.749 1.749z"></path>
<path d="M17.707 15.72c-0.907 0-1.788-0.47-2.274-1.312l-4.197-7.269c-0.724-1.255-0.294-2.859 0.96-3.583s2.859-0.295 3.583 0.96l4.197 7.269c0.724 1.255 0.294 2.859-0.96 3.583-0.413 0.238-0.864 0.352-1.309 0.352z"></path>
<path d="M34.493 43.746c-0.544 0-1.073-0.282-1.364-0.787l-4.197-7.269c-0.435-0.753-0.177-1.715 0.576-2.15s1.715-0.177 2.15 0.576l4.197 7.269c0.435 0.753 0.177 1.715-0.576 2.15-0.248 0.143-0.518 0.211-0.785 0.211z"></path>
<path d="M13.094 20.153c-0.415 0-0.836-0.106-1.222-0.328l-7.269-4.197c-1.171-0.676-1.572-2.173-0.896-3.344s2.173-1.572 3.344-0.896l7.269 4.197c1.171 0.676 1.572 2.173 0.896 3.344-0.453 0.785-1.276 1.225-2.122 1.225z"></path>
<path d="M42.171 35.891c-0.237 0-0.478-0.060-0.698-0.188l-7.269-4.197c-0.669-0.386-0.898-1.242-0.512-1.911s1.242-0.898 1.911-0.512l7.269 4.197c0.669 0.386 0.898 1.242 0.512 1.911-0.259 0.449-0.729 0.7-1.213 0.7z"></path>
<path d="M11.41 26.273h-8.393c-1.256 0-2.273-1.018-2.273-2.273s1.018-2.273 2.273-2.273h8.393c1.256 0 2.273 1.018 2.273 2.273s-1.018 2.273-2.273 2.273z"></path>
<path d="M44.984 25.399c-0 0 0 0 0 0h-8.393c-0.773-0-1.399-0.626-1.399-1.399s0.626-1.399 1.399-1.399c0 0 0 0 0 0h8.393c0.773 0 1.399 0.626 1.399 1.399s-0.626 1.399-1.399 1.399z"></path>
<path d="M5.83 36.591c-0.725 0-1.431-0.376-1.819-1.050-0.579-1.004-0.236-2.287 0.768-2.866l7.269-4.197c1.004-0.58 2.287-0.236 2.866 0.768s0.236 2.287-0.768 2.866l-7.269 4.197c-0.33 0.191-0.691 0.282-1.047 0.282z"></path>
<path d="M34.905 19.104c-0.483 0-0.954-0.251-1.213-0.7-0.386-0.669-0.157-1.525 0.512-1.911l7.269-4.197c0.669-0.386 1.525-0.157 1.911 0.512s0.157 1.525-0.512 1.911l-7.269 4.197c-0.22 0.127-0.461 0.188-0.698 0.188z"></path>
<path d="M13.506 44.096c-0.326 0-0.657-0.083-0.96-0.258-0.92-0.531-1.235-1.708-0.704-2.628l4.197-7.269c0.531-0.92 1.707-1.235 2.628-0.704s1.235 1.708 0.704 2.628l-4.197 7.269c-0.356 0.617-1.003 0.962-1.668 0.962z"></path>
<path d="M30.294 14.496c-0.237 0-0.478-0.060-0.698-0.188-0.669-0.386-0.898-1.242-0.512-1.911l4.197-7.269c0.386-0.669 1.242-0.898 1.911-0.512s0.898 1.242 0.512 1.911l-4.197 7.269c-0.259 0.449-0.729 0.7-1.213 0.7z"></path>
</svg>
<svg id="icon-binoculars" width="48" height="48" viewBox="0 0 48 48" x="192" y="0">
<path d="M3 0h18v3h-18zM27 0h18v3h-18zM44.625 15h-2.625v-12h-12v12h-12v-12h-12v12h-2.625c-1.856 0-3.375 1.519-3.375 3.375v26.25c0 1.856 1.519 3.375 3.375 3.375h14.25c1.856 0 3.375-1.519 3.375-3.375v-17.625h6v17.625c0 1.856 1.519 3.375 3.375 3.375h14.25c1.856 0 3.375-1.519 3.375-3.375v-26.25c0-1.856-1.519-3.375-3.375-3.375zM16.313 45h-11.625c-0.928 0-1.688-0.675-1.688-1.5s0.759-1.5 1.688-1.5h11.625c0.928 0 1.688 0.675 1.688 1.5s-0.759 1.5-1.688 1.5zM25.5 24h-3c-0.825 0-1.5-0.675-1.5-1.5s0.675-1.5 1.5-1.5h3c0.825 0 1.5 0.675 1.5 1.5s-0.675 1.5-1.5 1.5zM43.313 45h-11.625c-0.928 0-1.688-0.675-1.688-1.5s0.759-1.5 1.688-1.5h11.625c0.928 0 1.688 0.675 1.688 1.5s-0.759 1.5-1.688 1.5z"></path>
</svg>
</svg>
